nColumns=19
nRows=61
DataType=double
version=3
OpenSimVersion=4.1
endheader
time	ground_force_calcn_r_vx	ground_force_calcn_r_vy	ground_force_calcn_r_vz	ground_force_calcn_r_px	ground_force_calcn_r_py	ground_force_calcn_r_pz	ground_force_calcn_r_mx	ground_force_calcn_r_my	ground_force_calcn_r_mz	ground_force_calcn_l_vx	ground_force_calcn_l_vy	ground_force_calcn_l_vz	ground_force_calcn_l_px	ground_force_calcn_l_py	ground_force_calcn_l_pz	ground_force_calcn_l_mx	ground_force_calcn_l_my	ground_force_calcn_l_mz
0.33	-8.78288	18.8296	-6.43503	1.13375	0	-0.334885	-0.905051	1.94033	-0.663112	0	0	0	0	0	0	0	0	0
0.34	-30.9422	74.3878	-14.9218	1.14727	0	-0.346395	-1.56699	3.76718	-0.755677	0	0	0	0	0	0	0	0	0
0.35	-83.6248	224.476	-25.0346	1.13134	0	-0.346593	-1.90375	5.11028	-0.569922	0	0	0	0	0	0	0	0	0
0.36	-141.344	488.257	-28.9056	1.11197	0	-0.346454	-1.54546	5.33859	-0.316053	0	0	0	0	0	0	0	0	0
0.37	-151.692	812.737	-18.3819	1.08311	0	-0.34897	-0.718075	3.8473	-0.0870155	0	0	0	0	0	0	0	0	0
0.38	-148.183	1125.15	7.3357	1.04804	0	-0.353754	-0.0960653	0.729423	0.00475565	0	0	0	0	0	0	0	0	0
0.39	-171.879	1352.84	39.6064	1.01299	0	-0.358384	0.367966	-2.8962	-0.0847909	0	0	0	0	0	0	0	0	0
0.4	-184.722	1480.66	64.4181	0.976584	0	-0.361502	0.718106	-5.75606	-0.250426	0	0	0	0	0	0	0	0	0
0.41	-168.836	1555.51	73.0744	0.936874	0	-0.362983	0.758348	-6.98673	-0.328222	0	0	0	0	0	0	0	0	0
0.42	-129.007	1606.14	68.2811	0.894654	0	-0.362727	0.512363	-6.37896	-0.271186	0	0	0	0	0	0	0	0	0
0.43	-64.7376	1623.69	57.7316	0.851628	0	-0.361573	0.175648	-4.40546	-0.15664	0	0	0	0	0	0	0	0	0
0.44	16.2926	1593.44	48.6693	0.807544	0	-0.360518	-0.0199505	-1.95119	-0.0595963	0	0	0	0	0	0	0	0	0
0.45	101.627	1508.85	45.3861	0.762018	0	-0.359647	0.00731529	0.10861	0.00326697	0	0	0	0	0	0	0	0	0
0.46	181.535	1368.59	46.873	0.715427	0	-0.359218	0.169649	1.27899	0.0438042	0	0	0	0	0	0	0	0	0
0.47	239.233	1176.23	49.8355	0.668687	0	-0.359375	0.319017	1.5685	0.0664557	0	0	0	0	0	0	0	0	0
0.48	262.275	942.865	51.9782	0.624819	0	-0.359333	0.374752	1.34721	0.0742691	0	0	0	0	0	0	0	0	0
0.49	246.378	688.048	51.083	0.586203	0	-0.358681	0.379963	1.0611	0.0787799	0	0	0	0	0	0	0	0	0
0.5	196.97	444.791	45.4476	0.552186	0	-0.357342	0.435279	0.982932	0.100433	0	0	0	0	0	0	0	0	0
0.51	131.891	249.121	35.512	0.522854	0	-0.353673	0.591908	1.11802	0.159373	0	0	0	0	0	0	0	0	0
0.52	71.269	117.604	23.3855	0.49813	0	-0.345535	0.785275	1.29581	0.257672	0	0	0	0	0	0	0	0	0
0.53	28.7992	45.2358	12.1162	0.484157	0	-0.331518	0.867853	1.36316	0.365117	0	0	0	0	0	0	0	0	0
0.54	7.88472	14.5218	4.70225	0.53694	0	-0.296009	0.710538	1.30864	0.423746	0	0	0	0	0	0	0	0	0
0.55	0	0	0	0	0	0	0	0	0	0	0	0	0	0	0	0	0	0
0.56	0	0	0	0	0	0	0	0	0	0	0	0	0	0	0	0	0	0
0.57	0	0	0	0	0	0	0	0	0	0	0	0	0	0	0	0	0	0
0.58	0	0	0	0	0	0	0	0	0	0	0	0	0	0	0	0	0	0
0.59	0	0	0	0	0	0	0	0	0	0	0	0	0	0	0	0	0	0
0.6	0	0	0	0	0	0	0	0	0	0	0	0	0	0	0	0	0	0
0.61	0	0	0	0	0	0	0	0	0	0	0	0	0	0	0	0	0	0
0.62	0	0	0	0	0	0	0	0	0	-16.1774	32.2962	-0.486173	1.15879	0	-0.442262	-0.598138	1.19411	-0.0179756
0.63	0	0	0	0	0	0	0	0	0	-56.9232	128.3	6.15332	1.11799	0	-0.434573	-0.310917	0.700779	0.0336097
0.64	0	0	0	0	0	0	0	0	0	-129.635	366.053	22.8619	1.10541	0	-0.425036	0.0151056	-0.0426541	-0.00266397
0.65	0	0	0	0	0	0	0	0	0	-176.539	740.885	43.7267	1.09025	0	-0.413738	0.137383	-0.576555	-0.034028
0.66	0	0	0	0	0	0	0	0	0	-171.234	1119.76	51.7738	1.06605	0	-0.407198	0.0661099	-0.432316	-0.0199887
0.67	0	0	0	0	0	0	0	0	0	-184.265	1372.59	42.2572	1.03725	0	-0.406292	-0.0450546	0.335614	0.0103323
0.68	0	0	0	0	0	0	0	0	0	-207.247	1506.5	32.4768	1.00304	0	-0.405953	-0.152507	1.10859	0.0238988
0.69	0	0	0	0	0	0	0	0	0	-197.428	1599.74	34.8258	0.962838	0	-0.405663	-0.15156	1.22807	0.0267347
0.7	0	0	0	0	0	0	0	0	0	-151.341	1675.81	46.3392	0.919402	0	-0.406308	-0.0396268	0.438792	0.0121334
0.71	0	0	0	0	0	0	0	0	0	-80.5477	1713.62	58.3674	0.875452	0	-0.407133	0.0445588	-0.947969	-0.0322887
0.72	0	0	0	0	0	0	0	0	0	5.2072	1699.94	63.1437	0.831544	0	-0.407558	-0.00678833	-2.21611	-0.0823168
0.73	0	0	0	0	0	0	0	0	0	91.4592	1632.85	57.2547	0.787452	0	-0.406923	-0.147567	-2.63456	-0.0923788
0.74	0	0	0	0	0	0	0	0	0	168.38	1510.88	41.8586	0.743643	0	-0.405527	-0.203941	-1.82997	-0.0506988
0.75	0	0	0	0	0	0	0	0	0	228.044	1334.21	21.9476	0.699822	0	-0.403125	0.00776937	0.0454557	0.000747744
0.76	0	0	0	0	0	0	0	0	0	258.865	1105.98	1.50125	0.657375	0	-0.399979	0.559602	2.39085	0.00324532
0.77	0	0	0	0	0	0	0	0	0	255.889	839.73	-16.6407	0.61766	0	-0.397052	1.34404	4.41063	-0.0874044
0.78	0	0	0	0	0	0	0	0	0	216.987	567.759	-27.817	0.58217	0	-0.393698	2.08283	5.44984	-0.267012
0.79	0	0	0	0	0	0	0	0	0	151.141	332.212	-29.5193	0.553006	0	-0.38798	2.41758	5.31391	-0.472177
0.8	0	0	0	0	0	0	0	0	0	82.4358	162.535	-24.3163	0.526264	0	-0.381054	2.16559	4.26978	-0.63879
0.81	0	0	0	0	0	0	0	0	0	32.2741	63.829	-15.6842	0.511659	0	-0.374111	1.42017	2.80868	-0.690155
0.82	0	0	0	0	0	0	0	0	0	7.77146	21.6008	-6.61255	0.632903	0	-0.335946	0.509288	1.41557	-0.433341
0.83	0	0	0	0	0	0	0	0	0	0	0	0	0	0	0	0	0	0
0.84	0	0	0	0	0	0	0	0	0	0	0	0	0	0	0	0	0	0
0.85	0	0	0	0	0	0	0	0	0	0	0	0	0	0	0	0	0	0
0.86	0	0	0	0	0	0	0	0	0	0	0	0	0	0	0	0	0	0
0.87	0	0	0	0	0	0	0	0	0	0	0	0	0	0	0	0	0	0
0.88	0	0	0	0	0	0	0	0	0	0	0	0	0	0	0	0	0	0
0.89	0	0	0	0	0	0	0	0	0	0	0	0	0	0	0	0	0	0
0.9	0	0	0	0	0	0	0	0	0	0	0	0	0	0	0	0	0	0
0.91	0	0	0	0	0	0	0	0	0	0	0	0	0	0	0	0	0	0
0.92	-7.78578	25.3541	-8.80109	1.11127	0	-0.305254	-0.673697	2.19387	-0.76155	0	0	0	0	0	0	0	0	0
0.93	-30.5199	102.594	-20.1915	1.12467	0	-0.307615	-0.987823	3.32062	-0.653529	0	0	0	0	0	0	0	0	0
